<svg xmlns="http://www.w3.org/2000/svg" width="404" height="41" viewBox="0 0 404 41"><g transform="translate(67.419 1.325)"><path d="M128.412,282.188h6.8q5.949.037,5.609,5.794-.255,2.258-.679,5.3a38.745,38.745,0,0,1,3.7,1.279q.213-1.618.425-4.364a2.424,2.424,0,0,1,2.763-2.484q2.931.075,2.846,2.484-.3,4.063-.637,6.584l1.7.866q3.1,1.28,1.87,4.514a2.685,2.685,0,0,1-3.908,1.054l-.723-.339a65.656,65.656,0,0,1-2.507,7.713,3.048,3.048,0,0,1-4.079,1.505q-2.8-1.205-1.531-3.613a32.759,32.759,0,0,0,2.677-8.089q-.977-.413-1.912-.772t-1.828-.659l-.042.076a26.436,26.436,0,0,1-2.04,5.116,16.568,16.568,0,0,1-3.25,4.44,6.627,6.627,0,0,1-4.227,1.957,5.519,5.519,0,0,1-4.951-2.672q-1.636-2.634-1.083-7.036a8.206,8.206,0,0,1,2.188-4.346,13.232,13.232,0,0,1,4.079-2.935,12.993,12.993,0,0,1,4.95-1.184q.171-1.2.3-2.333.169-1.807-1.445-1.844h-5.056q-3.4,0-3.4-3.01T128.412,282.188Zm1.232,22.311a2.118,2.118,0,0,0,1.635-1.016,9.386,9.386,0,0,0,1.168-2.257q.467-1.28.722-2.277t.256-1.035a4.687,4.687,0,0,0-2.465.64,4.579,4.579,0,0,0-1.593,1.5,7.057,7.057,0,0,0-.743,1.542,3.032,3.032,0,0,0,.148,2.182Q129.218,304.5,129.644,304.5Z" transform="translate(-123.258 -276.469)" fill="#1391e6"/><path d="M149.5,287.8q0-2.822,3.187-2.822h2.167l.467-2.259q.468-1.994,3.314-2.032,2.975.152,2.465,2.333a12.94,12.94,0,0,0-.383,1.957h2.21q3.187,0,3.187,2.822,0,2.859-3.187,2.859h-3.23q-3.016,11.249-3.611,13.507-.637,2.22-3.569,1.806-2.889-.564-2.21-3.01,2.678-8.653,3.4-12.3h-1.02Q149.5,290.664,149.5,287.8Zm23.922,6.471v3.687a35.82,35.82,0,0,1,4.759,1.993q1.825,1.2.509,3.462a2.6,2.6,0,0,1-3.569.753q-.595-.263-1.7-.639v2.445a7.142,7.142,0,0,1-1.084,4.308,5.351,5.351,0,0,1-2.613,1.956,9.779,9.779,0,0,1-3.1.507,11.567,11.567,0,0,1-4.015-.564,7.183,7.183,0,0,1-3.357-2.295,7.082,7.082,0,0,1-1.381-4.665,7.578,7.578,0,0,1,2.7-6.077q2.655-2.2,7.33-1.937v-2.935q0-2.446,2.762-2.446T173.42,294.276Zm-6.8,13.169a1.133,1.133,0,0,0,.956-.564,2.657,2.657,0,0,0,.32-1.393v-3.2a5.083,5.083,0,0,0-3.485.49,2.808,2.808,0,0,0-1.317,2.181,2.087,2.087,0,0,0,.912,1.994A4.3,4.3,0,0,0,166.621,307.445Zm1.615-21q.85-2.6,3.91-1.881l3.824.9q3.06.753,2.21,3.311-.893,2.6-3.952,1.881l-3.782-.9Q167.342,289.045,168.236,286.449Z" transform="translate(-115.917 -276.668)" fill="#1391e6"/><path d="M181.17,282.188h6.8q5.949.037,5.609,5.794-.255,2.258-.681,5.3a38.638,38.638,0,0,1,3.7,1.279q.213-1.618.425-4.364a2.423,2.423,0,0,1,2.762-2.484q2.933.075,2.848,2.484-.3,4.063-.637,6.584l1.7.866q3.1,1.28,1.87,4.514a2.687,2.687,0,0,1-3.91,1.054l-.722-.339a65.927,65.927,0,0,1-2.507,7.713,3.049,3.049,0,0,1-4.08,1.505q-2.8-1.205-1.529-3.613a32.756,32.756,0,0,0,2.677-8.089q-.979-.413-1.912-.772t-1.827-.659l-.042.076a26.522,26.522,0,0,1-2.04,5.116,16.622,16.622,0,0,1-3.251,4.44,6.627,6.627,0,0,1-4.228,1.957,5.518,5.518,0,0,1-4.95-2.672q-1.636-2.634-1.084-7.036a8.215,8.215,0,0,1,2.188-4.346,13.239,13.239,0,0,1,4.08-2.935,12.989,12.989,0,0,1,4.95-1.184q.169-1.2.3-2.333.167-1.807-1.445-1.844H181.17q-3.4,0-3.4-3.01T181.17,282.188ZM182.4,304.5a2.12,2.12,0,0,0,1.637-1.016,9.386,9.386,0,0,0,1.168-2.257q.466-1.28.722-2.277t.255-1.035a4.686,4.686,0,0,0-2.464.64,4.579,4.579,0,0,0-1.593,1.5,7.128,7.128,0,0,0-.745,1.542,3.038,3.038,0,0,0,.15,2.182Q181.978,304.5,182.4,304.5Z" transform="translate(-108.498 -276.469)" fill="#1391e6"/><path d="M225.05,284.7c0,.252.141.376.425.376h13.81a2.845,2.845,0,0,1,1.954.715,2.219,2.219,0,0,1,0,3.424,2.844,2.844,0,0,1-1.954.715H204.611a2.784,2.784,0,0,1-1.912-.715,2.219,2.219,0,0,1,0-3.424,2.784,2.784,0,0,1,1.912-.715h2.89c.283,0,.425-.125.425-.376v-2.934a2.434,2.434,0,0,1,.892-1.882,3.254,3.254,0,0,1,4.25,0,2.438,2.438,0,0,1,.892,1.882V284.7c0,.252.141.376.425.376h3.952c.282,0,.425-.125.425-.376v-4.777a2.536,2.536,0,0,1,.914-1.976,3.245,3.245,0,0,1,2.231-.808h.976a2.231,2.231,0,0,1,1.531.564,1.748,1.748,0,0,1,.637,1.354c0,.151.084.226.255.226h10.156a2.54,2.54,0,0,1,1.742.64,2.05,2.05,0,0,1,0,3.123,2.545,2.545,0,0,1-1.742.639h-9.986c-.284,0-.425.125-.425.376Zm8.371,22.839c.283,0,.425-.126.425-.376v-13.7a2.472,2.472,0,0,1,.892-1.92,3.369,3.369,0,0,1,4.335,0,2.472,2.472,0,0,1,.892,1.92v17.646a2.468,2.468,0,0,1-.892,1.918,3.154,3.154,0,0,1-2.168.791h-1.529a1.583,1.583,0,0,1-1.084-.4,1.237,1.237,0,0,1-.445-.96c0-.1-.058-.15-.17-.15H210.305c-.114,0-.17.049-.17.15a1.236,1.236,0,0,1-.445.96,1.583,1.583,0,0,1-1.084.4h-1.487a3.1,3.1,0,0,1-2.124-.791,2.431,2.431,0,0,1-.892-1.881V293.432a2.434,2.434,0,0,1,.892-1.882,3.252,3.252,0,0,1,4.249,0,2.434,2.434,0,0,1,.892,1.882v9.256a.247.247,0,0,0,.128.225.313.313,0,0,0,.255.037,21,21,0,0,0,5.567-2.9.1.1,0,0,0,.064-.131c-.015-.063-.064-.094-.148-.094h-2.763a2.32,2.32,0,0,1-1.593-.583,1.842,1.842,0,0,1,0-2.822,2.319,2.319,0,0,1,1.593-.582h.044c.169,0,.225-.076.169-.227a11.886,11.886,0,0,0-.85-1.542,1.563,1.563,0,0,1-.255-.827,1.841,1.841,0,0,1,.084-.564,1.579,1.579,0,0,1,1.106-.979,3.057,3.057,0,0,1,1.062-.188,4.906,4.906,0,0,1,.85.076,2.516,2.516,0,0,1,1.487,1.015,1.367,1.367,0,0,1,.17.188,1.879,1.879,0,0,1,.3.978,2.235,2.235,0,0,1-.127.715,2.326,2.326,0,0,1-1.4,1.242h-.042c-.029.025-.037.05-.022.075a.067.067,0,0,0,.064.039h2.719q.424,0,.425-.376v-2.333a2.161,2.161,0,0,1,.786-1.675,2.918,2.918,0,0,1,3.782,0,2.166,2.166,0,0,1,.787,1.675v2.333c0,.251.141.376.425.376h3.357a.068.068,0,0,0,.063-.039c.014-.025.006-.037-.02-.037l-.34-.112a1.958,1.958,0,0,1-1.317-1.091,1.812,1.812,0,0,1-.17-.753,1.864,1.864,0,0,1,.213-.866,3.048,3.048,0,0,1,1.4-1.317,3.009,3.009,0,0,1,1.232-.264,2.3,2.3,0,0,1,.722.113h.086a1.719,1.719,0,0,1,1.231,1.016,1.515,1.515,0,0,1,.128.6,1.4,1.4,0,0,1-.34.9c-.594.777-1.006,1.3-1.231,1.58a.116.116,0,0,0-.022.17.18.18,0,0,0,.148.094h.765a2.324,2.324,0,0,1,1.593.582,1.84,1.84,0,0,1,0,2.822,2.325,2.325,0,0,1-1.593.583h-2.974c-.086,0-.136.031-.15.094a.1.1,0,0,0,.064.131,18.728,18.728,0,0,0,3.611,2.07,1.641,1.641,0,0,1,.978,1.2,1.253,1.253,0,0,1,.042.339,1.51,1.51,0,0,1-.467,1.054,3.758,3.758,0,0,1-1.87,1.015,2.61,2.61,0,0,1-.637.075,2.852,2.852,0,0,1-1.4-.376,23.767,23.767,0,0,1-3.229-2.408.181.181,0,0,0-.191-.037.147.147,0,0,0-.106.151v1.393a2.162,2.162,0,0,1-.787,1.674,2.917,2.917,0,0,1-3.782,0,2.157,2.157,0,0,1-.786-1.674V303.29a.147.147,0,0,0-.106-.151.179.179,0,0,0-.191.037A20.776,20.776,0,0,1,216.3,305.1a3.839,3.839,0,0,1-2.04.6,3.981,3.981,0,0,1-.764-.076,5.038,5.038,0,0,1-2.593-1.392,3.408,3.408,0,0,1-.467-.414.181.181,0,0,0-.191-.038.148.148,0,0,0-.108.15v3.236c0,.25.142.376.426.376Z" transform="translate(-101.26 -277.141)" fill="#1391e6"/><path d="M251.064,297.1a3.006,3.006,0,0,1,1.02,2.032v.225a2.922,2.922,0,0,1-.723,1.919,1.773,1.773,0,0,1-1.444.677.793.793,0,0,1-.214-.037,1.763,1.763,0,0,1-1.487-.866,4.19,4.19,0,0,1-.3-.451.108.108,0,0,0-.128-.057.091.091,0,0,0-.084.094v11.174a2.471,2.471,0,0,1-.892,1.92,3.368,3.368,0,0,1-4.334,0,2.471,2.471,0,0,1-.892-1.92V303a.087.087,0,0,0-.064-.094c-.042-.013-.079.007-.106.057a37.064,37.064,0,0,1-1.828,3.235,1.524,1.524,0,0,1-1.359.715h-.213a1.846,1.846,0,0,1-1.531-.978,4.5,4.5,0,0,1-.551-2.182v-.376a5.184,5.184,0,0,1,.934-2.484,39.694,39.694,0,0,0,3.739-6.584.289.289,0,0,0-.042-.264.259.259,0,0,0-.212-.112h-2a3.033,3.033,0,0,1-2.082-.752,2.351,2.351,0,0,1-.85-1.826,2.408,2.408,0,0,1,.85-1.844,2.984,2.984,0,0,1,2.082-.771h2.805c.282,0,.425-.126.425-.376v-2.822a.292.292,0,0,0-.128-.245.482.482,0,0,0-.3-.094l-1.275.188a2.453,2.453,0,0,1-.425.037,2.836,2.836,0,0,1-1.531-.452,3.148,3.148,0,0,1-1.275-1.5,1.916,1.916,0,0,1-.127-.677,1.818,1.818,0,0,1,.255-.9,1.953,1.953,0,0,1,1.445-.9,85.887,85.887,0,0,0,8.668-1.919,4.474,4.474,0,0,1,1.275-.188,4.918,4.918,0,0,1,1.317.188,3.636,3.636,0,0,1,2.04,1.392,1.664,1.664,0,0,1,.255,1.844,1.983,1.983,0,0,1-1.487,1.242q-1.062.264-2.167.488c-.284.05-.425.2-.425.452v3.875c0,.251.141.376.425.376h2a2.983,2.983,0,0,1,2.081.771,2.41,2.41,0,0,1,.851,1.844,2.353,2.353,0,0,1-.851,1.826,3.032,3.032,0,0,1-2.081.752h-2.338c-.058,0-.084.025-.084.075a.121.121,0,0,0,.084.113Q248.642,294.8,251.064,297.1Zm25.326,4.44a2.568,2.568,0,0,1,.042.451,2.482,2.482,0,0,1-.553,1.543,2.986,2.986,0,0,1-1.954,1.091l-1.487.263c-.284.025-.425.162-.425.414v6.434a2.509,2.509,0,0,1-.914,1.938,3.422,3.422,0,0,1-4.419,0,2.5,2.5,0,0,1-.914-1.938v-5.418a.29.29,0,0,0-.128-.245.279.279,0,0,0-.255-.057l-9.178,1.467a4.444,4.444,0,0,1-.553.038,3.084,3.084,0,0,1-1.7-.489,2.521,2.521,0,0,1-1.275-2.22,2.471,2.471,0,0,1,.552-1.543,2.948,2.948,0,0,1,2-1.129l10.156-1.618a.374.374,0,0,0,.383-.414V280.655a2.536,2.536,0,0,1,.914-1.975,3.421,3.421,0,0,1,4.419,0,2.544,2.544,0,0,1,.914,1.975v18.474a.292.292,0,0,0,.127.245.278.278,0,0,0,.255.055l.553-.075a4.447,4.447,0,0,1,.553-.037,3.221,3.221,0,0,1,1.7.489A2.425,2.425,0,0,1,276.391,301.537Zm-21.248-6.546a2.053,2.053,0,0,1-.806-1.618,1.946,1.946,0,0,1,.806-1.581,3.366,3.366,0,0,1,2.041-.752h.127a3.17,3.17,0,0,1,1.955.64q1.57,1.2,2.762,2.22a2.308,2.308,0,0,1,.808,1.73,2.527,2.527,0,0,1-1.02,2.032,2.7,2.7,0,0,1-1.785.639h-.255a3.151,3.151,0,0,1-1.954-.9Q256.631,296.231,255.143,294.991Zm8.244-11.25a2.2,2.2,0,0,1,.765,1.656v.263a2.589,2.589,0,0,1-1.062,1.806,2.683,2.683,0,0,1-1.7.6,1.575,1.575,0,0,1-.34-.037,3.014,3.014,0,0,1-1.954-.9,32.122,32.122,0,0,0-2.465-2.333,1.982,1.982,0,0,1-.765-1.58,1.948,1.948,0,0,1,.85-1.618,3.351,3.351,0,0,1,2.082-.676,3.176,3.176,0,0,1,2.04.676Q262.281,282.724,263.387,283.741Z" transform="translate(-91.878 -277.044)" fill="#1391e6"/><path d="M283.129,284.657h7.521q7.561-.075,6.373,7.3a25.213,25.213,0,0,1-2.421,7.092,19.917,19.917,0,0,1-4.611,6.152,26.779,26.779,0,0,1-5.673,3.875,47.8,47.8,0,0,1-6.331,2.6q-3.018,1.014-4.419-1.5-.892-2.9,1.828-3.838a24.765,24.765,0,0,0,3.654-1.317,21.87,21.87,0,0,0,4.972-3.086,17.382,17.382,0,0,0,4.186-4.779,13.506,13.506,0,0,0,1.89-4.891q.3-1.956-1.954-1.994h-7.607a28.742,28.742,0,0,1-4.928,5.606q-2.509,2.108-4.759.6-2.083-2.483.042-4.4a19.457,19.457,0,0,0,2.805-2.935,21.989,21.989,0,0,0,3.1-5.907q.893-2.822,4.42-2.257Q284.148,281.721,283.129,284.657Z" transform="translate(-82.258 -276.644)" fill="#1391e6"/><path d="M296.223,284.055q0-2.9,3.271-2.9,3.315,0,3.315,2.9v11.852q0,2.9-3.272,2.9-3.313,0-3.313-2.9Zm8.031,22.16a13.686,13.686,0,0,0,4.865-2.6,13.1,13.1,0,0,0,2.592-3.517,11.486,11.486,0,0,0,1.126-5.173V284.055q0-2.9,3.272-2.9,3.313,0,3.315,2.9v10.874a18,18,0,0,1-1.7,7.994,14.846,14.846,0,0,1-4.375,5.324,26.571,26.571,0,0,1-6.884,3.538q-3.358.9-4.421-1.806Q301.406,306.969,304.254,306.216Z" transform="translate(-74.87 -276.606)" fill="#1391e6"/><path d="M342.857,304.353q3.315,0,3.315,2.934,0,2.973-3.315,2.972H322.547q-3.313,0-3.315-2.934,0-2.973,3.315-2.972Zm-22.818-18.7q0-2.936,3.315-2.935h18.611q3.315,0,3.314,2.935,0,2.973-3.314,2.972H323.354q-3.313,0-3.315-2.935Z" transform="translate(-68.434 -276.398)" fill="#1391e6"/><path d="M348.1,287.408l1.657,9.03q.3,1.994-1.828,2.371a1.833,1.833,0,0,1-2.421-1.693l-1.7-8.917q-.255-2.033,1.954-2.258Q347.888,285.791,348.1,287.408Zm1.105,23.4q-3.019.6-3.613-1.806-.424-2.67,2-3.047a14.246,14.246,0,0,0,6.119-2.729,15.225,15.225,0,0,0,4.164-4.947,29.642,29.642,0,0,0,2.316-5.643,35.29,35.29,0,0,0,1-4.214q.3-2.409,3.016-2.445,2.889.112,2.465,2.822a35.708,35.708,0,0,1-2.295,8.9,25.407,25.407,0,0,1-3.866,6.115,21.138,21.138,0,0,1-5.482,4.647A19.348,19.348,0,0,1,349.205,310.811Zm5.991-23.4,1.657,9.03q.3,1.994-1.87,2.371a1.833,1.833,0,0,1-2.421-1.693l-1.7-8.917q-.213-2.033,1.955-2.258Q354.984,285.791,355.2,287.408Z" transform="translate(-61.566 -275.971)" fill="#1391e6"/><path d="M378.188,284.657h7.521q7.563-.075,6.374,7.3a25.178,25.178,0,0,1-2.423,7.092,19.915,19.915,0,0,1-4.61,6.152,26.816,26.816,0,0,1-5.673,3.875,47.851,47.851,0,0,1-6.331,2.6q-3.02,1.014-4.419-1.5-.893-2.9,1.826-3.838a24.765,24.765,0,0,0,3.655-1.317,21.9,21.9,0,0,0,4.972-3.086,17.378,17.378,0,0,0,4.185-4.779,13.533,13.533,0,0,0,1.892-4.891q.3-1.956-1.956-1.994H375.6a28.7,28.7,0,0,1-4.93,5.606q-2.507,2.108-4.758.6-2.083-2.483.042-4.4a19.456,19.456,0,0,0,2.8-2.935,21.955,21.955,0,0,0,3.1-5.907q.893-2.822,4.419-2.257Q379.208,281.721,378.188,284.657Z" transform="translate(-55.664 -276.644)" fill="#1391e6"/></g><g transform="translate(0 0)"><g transform="translate(0 0)"><path d="M115.726,280.911a13.562,13.562,0,0,0-4.717-2.13,9.355,9.355,0,0,0-8.921,2.508,7.352,7.352,0,0,1-10.165.14,9.937,9.937,0,0,0-9.592-2.509,13.26,13.26,0,0,0-4.173,1.991c-7.776,5.724-2.522,19.035-1.584,21.38,2.707,6.75,8.046,12.354,11.065,12.356,2.266,0,3.651.067,5.463-6.38a5.7,5.7,0,0,1,2.554-3.422,2.393,2.393,0,0,1,2.277-.018,5.674,5.674,0,0,1,2.7,3.44c1.813,6.447,3.448,6.442,5.539,6.38,3.013-.088,8.4-5.606,11.1-12.356C118.21,299.946,123.5,286.634,115.726,280.911Z" transform="translate(-69.628 -273.658)" fill="#1391e6"/><path d="M0,4C0,6.654,2.433,8.806,5.435,8.806S10.869,6.654,10.869,4Z" transform="translate(21.387 18.104)" fill="#fff"/><path d="M52.685,120.856a1.707,1.707,0,0,0,1.1.97l.316.081c.469.119.469.315,0,.434l-.316.081a1.707,1.707,0,0,0-1.1.97l-.092.281c-.134.414-.357.414-.491,0l-.092-.281a1.7,1.7,0,0,0-1.1-.97l-.318-.081c-.469-.119-.469-.315,0-.434l.318-.081a1.7,1.7,0,0,0,1.1-.97l.092-.281c.134-.414.357-.414.491,0Z" transform="translate(-50.244 -112.671)" fill="#1391e6"/><path d="M51.7,116.533a3.48,3.48,0,0,0,2.24,1.981l.649.164c.956.245.956.645,0,.889l-.649.164a3.48,3.48,0,0,0-2.24,1.981l-.186.572c-.276.847-.728.847-1,0l-.187-.572a3.475,3.475,0,0,0-2.24-1.981l-.647-.164c-.956-.244-.956-.644,0-.889l.647-.164a3.475,3.475,0,0,0,2.24-1.981l.187-.572c.276-.847.728-.847,1,0Z" transform="translate(-45.122 -115.326)" fill="#1391e6"/><rect width="2" height="4" rx="1" transform="translate(21.266 14.411)" fill="#fff"/><rect width="2" height="4" rx="1" transform="translate(30.448 14.411)" fill="#fff"/></g></g></svg>