<svg width="24" height="24"><path d="M8.368 11.232V9.555a.5.5 0 0 1 .5-.5h1.68a.5.5 0 0 1 .5.5v1.677a.5.5 0 0 1-.5.5H8.871a.5.5 0 0 1-.503-.5Zm5.871.5h1.677a.5.5 0 0 0 .5-.5V9.555a.5.5 0 0 0-.5-.5h-1.678a.5.5 0 0 0-.5.5v1.677a.5.5 0 0 0 .5.503Zm-3.188 3.526V13.58a.5.5 0 0 0-.5-.5h-1.68a.5.5 0 0 0-.5.5v1.677a.5.5 0 0 0 .5.5h1.677a.5.5 0 0 0 .503-.499Zm3.187.5h1.677a.5.5 0 0 0 .5-.5V13.58a.5.5 0 0 0-.5-.5h-1.677a.5.5 0 0 0-.5.5v1.677a.5.5 0 0 0 .5.504Zm7.548 5.2v1.51H3v-1.51a.5.5 0 0 1 .5-.5h.818V4.566a.95.95 0 0 1 1.006-.882h3.715V2.006A1.006 1.006 0 0 1 10.045 1h4.7a1.006 1.006 0 0 1 1.006 1.006v1.678h3.711a.95.95 0 0 1 1.006.882v15.892h.818a.5.5 0 0 1 .501.503Zm-15.452-.542h4.717v-2.81a.5.5 0 0 1 .5-.5h1.677a.5.5 0 0 1 .5.5v2.81h4.718V5.7h-2.7v1a1.006 1.006 0 0 1-1.004 1.01h-4.7A1.006 1.006 0 0 1 9.039 6.7v-1h-2.7Zm7.821-16.732h-1.09v-1.09a.252.252 0 0 0-.252-.252h-.839a.252.252 0 0 0-.252.252v1.09h-1.09a.252.252 0 0 0-.252.252v.839a.252.252 0 0 0 .252.252h1.09v1.09a.252.252 0 0 0 .252.252h.839a.252.252 0 0 0 .252-.252V5.026h1.09a.252.252 0 0 0 .252-.252v-.839a.252.252 0 0 0-.252-.251Z" fill="#393939"/></svg>