<svg xmlns="http://www.w3.org/2000/svg" width="20.906" height="32" viewBox="0 0 20.906 32"><g transform="translate(-307.265)"><path d="M310.68,477.356a90.922,90.922,0,0,1,5.121,8.43c3.46,6.141,9.258,16.99,11.373,20.7,1.1,1.938-.538,2.382-1.1,1.651-.246-.319-5.183-8.271-9.772-16.156-3.594-6.174-6.973-12.465-7.716-13.977C308.08,476.977,309.729,475.752,310.68,477.356Z" transform="translate(0.623 -476.582)" fill="#1391e6" fill-rule="evenodd"/><path d="M309.851,492.266c1.451,1.4,5.233,4.785,6.711,6.784,1.579,1.953-.68,2-1.7,1-1.082-1.058-5.7-5.644-6.814-7.005C306.32,490.943,307.687,490.122,309.851,492.266Z" transform="translate(0 -468.691)" fill="#1391e6" fill-rule="evenodd"/></g></svg>