<svg xmlns="http://www.w3.org/2000/svg" width="131.113" height="131.113" viewBox="0 0 131.113 131.113"><g transform="translate(0)"><g transform="translate(0 2.131)"><circle cx="61.866" cy="61.866" r="61.866" transform="translate(2.626 2.625)" fill="#fff"/><path d="M975.682,850.956a64.491,64.491,0,1,1,64.491-64.492A64.565,64.565,0,0,1,975.682,850.956Zm0-123.731a59.241,59.241,0,1,0,59.24,59.24A59.307,59.307,0,0,0,975.682,727.225Z" transform="translate(-911.19 -721.975)" fill="#1391e6"/><g transform="translate(60.71 10.282)"><circle cx="3.782" cy="3.782" r="3.782" fill="#1391e6"/><circle cx="3.782" cy="3.782" r="3.782" transform="translate(0 100.854)" fill="#1391e6"/></g><g transform="translate(10.283 60.709)"><circle cx="3.782" cy="3.782" r="3.782" transform="translate(100.854)" fill="#1391e6"/><circle cx="3.782" cy="3.782" r="3.782" fill="#1391e6"/></g><circle cx="2.062" cy="2.062" r="2.062" transform="translate(106.101 37.215)" fill="#1391e6"/><circle cx="2.062" cy="2.062" r="2.062" transform="translate(18.758 87.642)" fill="#1391e6"/><circle cx="2.062" cy="2.062" r="2.062" transform="translate(87.643 18.757)" fill="#1391e6"/><circle cx="2.062" cy="2.062" r="2.062" transform="translate(37.216 106.1)" fill="#1391e6"/><circle cx="2.062" cy="2.062" r="2.062" transform="translate(37.216 18.757)" fill="#1391e6"/><circle cx="2.062" cy="2.062" r="2.062" transform="translate(87.643 106.1)" fill="#1391e6"/><circle cx="2.062" cy="2.062" r="2.062" transform="translate(18.758 37.215)" fill="#1391e6"/><circle cx="2.062" cy="2.062" r="2.062" transform="translate(106.101 87.642)" fill="#1391e6"/><path d="M988.127,841.778h0c-1.054,0-1.928-1.164-2-2.661l-1.649-36.435c-.075-1.639.84-3.026,2-3.026h3.3c1.155,0,2.07,1.387,2,3.026l-1.649,36.435C990.054,840.614,989.181,841.778,988.127,841.778Z" transform="translate(-923.635 -735.166)" fill="#1391e6"/><path d="M951.818,807.423h0a2.2,2.2,0,0,1,1.352-2.679l25.948-8.852a2.184,2.184,0,0,1,2.774,1.577l.956,3.576a2.183,2.183,0,0,1-1.617,2.75l-26.9,5.276A2.2,2.2,0,0,1,951.818,807.423Z" transform="translate(-918.075 -734.508)" fill="#1391e6"/><circle cx="5.074" cy="5.074" r="5.074" transform="translate(59.15 59.416)" fill="#1391e6"/></g><g transform="translate(83.515)"><circle cx="23.799" cy="23.799" r="23.799" fill="#1391e6"/><path d="M1048.212,734.005a15.414,15.414,0,0,0-12.963-4.375,10.014,10.014,0,1,1-13.239,13.239,15.43,15.43,0,1,0,26.2-8.864Z" transform="translate(-1013.501 -721.121)" fill="#fff"/></g></g></svg>