<svg xmlns="http://www.w3.org/2000/svg" width="24" height="24" viewBox="0 0 24 24"><rect width="24" height="24" fill="#1391e6" opacity="0"/><path d="M15,16H9a1,1,0,0,0,0,2h6a1,1,0,0,0,0-2Z" fill="#1391e6"/><path d="M9,14h3a1,1,0,0,0,0-2H9a1,1,0,0,0,0,2Z" fill="#1391e6"/><path d="M19.74,8.33l-5.44-6A1,1,0,0,0,13.56,2h-7A2.53,2.53,0,0,0,4,4.5v15A2.53,2.53,0,0,0,6.56,22H17.44A2.53,2.53,0,0,0,20,19.5V9a1,1,0,0,0-.26-.67ZM14,5l2.74,3h-2A.79.79,0,0,1,14,7.15Zm3.44,15H6.56A.53.53,0,0,1,6,19.5V4.5A.53.53,0,0,1,6.56,4H12V7.15A2.79,2.79,0,0,0,14.71,10H18v9.5a.53.53,0,0,1-.56.5Z" fill="#1391e6"/></svg>