<svg width="167.646" height="112.605"><g fill="#1391e6"><path d="M26.981 44.406a2.369 2.369 0 0 0-2.361-2.377l-22.242-.066a2.37 2.37 0 1 0-.012 4.74l22.241.066a2.37 2.37 0 0 0 2.374-2.363ZM27.516 25.547l-17.012-6.321a2.37 2.37 0 1 0-1.651 4.443l17.008 6.322a2.37 2.37 0 1 0 1.651-4.443ZM25.778 59.016 9.823 64.842a2.371 2.371 0 0 0 .806 4.6 2.4 2.4 0 0 0 .819-.144l15.96-5.832a2.37 2.37 0 0 0-1.63-4.45ZM165.284 42.442l-22.242-.065a2.367 2.367 0 0 0-2.376 2.359 2.368 2.368 0 0 0 2.361 2.381l22.24.066a2.37 2.37 0 0 0 2.378-2.361 2.37 2.37 0 0 0-2.361-2.378ZM141.048 30.475a2.338 2.338 0 0 0 .819-.143l17.043-6.224a2.37 2.37 0 0 0 1.414-3.042 2.37 2.37 0 0 0-3.039-1.414l-17.043 6.221a2.372 2.372 0 0 0-1.414 3.041 2.371 2.371 0 0 0 2.22 1.561ZM157.703 65.269l-15.916-5.916a2.37 2.37 0 0 0-3.047 1.4 2.37 2.37 0 0 0 1.4 3.048l15.916 5.916a2.315 2.315 0 0 0 .818.149 2.37 2.37 0 0 0 .833-4.593Z"/></g><path d="M121.622 35.583c-7.5 66.635-18.823 71.782-22.109 71.773a4.543 4.543 0 0 1-3.3-1.333c-1.112-1.356-.929-3.755-.581-5.528 1.053-5.318 5.864-22.217-2.7-32.667a11.6 11.6 0 0 0-17.963-.051c-8.622 10.4-3.968 27.325-2.948 32.647.339 1.777.506 4.177-.614 5.526a4.544 4.544 0 0 1-3.31 1.314c-3.29-.01-14.572-5.224-21.692-71.9-1.419-13.266-.141-22.21 3.793-26.576 3.574-3.968 9.971-4.558 19.72-1.937a48.458 48.458 0 0 0 28.36.083c9.756-2.565 16.151-1.936 19.706 2.054 3.911 4.392 5.134 13.34 3.637 26.6Z" fill="#fff"/><path d="M59.711 5.251a40.176 40.176 0 0 1 10.207 1.593 48.459 48.459 0 0 0 28.36.083 40.428 40.428 0 0 1 10.072-1.534c4.319 0 7.492 1.184 9.634 3.588 3.911 4.392 5.134 13.34 3.637 26.6-7.5 66.574-18.8 71.773-22.1 71.773h-.095a4.546 4.546 0 0 1-3.218-1.334c-1.112-1.356-.929-3.755-.581-5.528 1.053-5.318 5.864-22.217-2.7-32.667a11.31 11.31 0 0 0-8.864-4.285h-.267a11.31 11.31 0 0 0-8.823 4.234c-8.622 10.4-3.968 27.325-2.948 32.647.339 1.777.506 4.177-.614 5.526a4.543 4.543 0 0 1-3.2 1.316h-.114c-3.29-.01-14.572-5.224-21.692-71.9-1.419-13.266-.141-22.21 3.793-26.576 2.13-2.365 5.264-3.53 9.513-3.53m0-5.251c-5.753 0-10.267 1.772-13.414 5.268-5.047 5.6-6.72 15.625-5.112 30.648 5.491 51.427 14.27 76.484 26.84 76.595h.186a9.732 9.732 0 0 0 6.891-2.836l.181-.179.164-.2c1.949-2.349 2.532-5.667 1.732-9.864-.1-.512-.226-1.118-.372-1.811-1.2-5.684-4.02-18.995 2.2-26.5l.027-.032.027-.033a6.032 6.032 0 0 1 4.728-2.269h.276a6.026 6.026 0 0 1 4.75 2.3l.026.033.027.032c6.155 7.515 3.247 20.786 2 26.454-.158.717-.295 1.345-.4 1.867-.824 4.2-.261 7.52 1.672 9.876l.162.2.181.181a9.733 9.733 0 0 0 6.935 2.877h.086c12.6 0 21.535-25 27.327-76.436 1.694-15.015.081-25.051-4.934-30.682-3.161-3.548-7.722-5.346-13.555-5.346a45.184 45.184 0 0 0-11.408 1.707l-.063.016-.062.018a43.235 43.235 0 0 1-25.408-.075l-.064-.019-.064-.017A44.953 44.953 0 0 0 59.703.006Z" fill="#1391e6"/><g fill="#1391e6"><path d="M75.358 26.313a1.793 1.793 0 0 1-.8-3.4l17.2-8.529a1.793 1.793 0 1 1 1.593 3.212l-17.2 8.529a1.788 1.788 0 0 1-.793.188Z"/><path d="M92.557 26.313a1.788 1.788 0 0 1-.8-.188l-17.2-8.529a1.793 1.793 0 0 1 1.593-3.212l17.2 8.529a1.793 1.793 0 0 1-.8 3.4Z"/></g></svg>