<svg xmlns="http://www.w3.org/2000/svg" width="108.983" height="140.603" viewBox="0 0 108.983 140.603"><g transform="translate(0 0)"><path d="M676.523,832.052h96.424a13.828,13.828,0,0,0,6.28-11.528v-90a14.119,14.119,0,0,0-14.262-13.939H740.721V715a1.792,1.792,0,0,0-1.812-1.772H710.562A1.793,1.793,0,0,0,708.749,715v1.593H684.506a14.119,14.119,0,0,0-14.262,13.939v90A13.829,13.829,0,0,0,676.523,832.052Z" transform="translate(-670.244 -713.224)" fill="#fff"/><path d="M764.964,835.186H684.506a14.119,14.119,0,0,1-14.262-13.939v-90a14.119,14.119,0,0,1,14.262-13.939h80.458a14.119,14.119,0,0,1,14.262,13.939v90A14.119,14.119,0,0,1,764.964,835.186Zm-80.458-112.67a8.848,8.848,0,0,0-8.938,8.735v90a8.849,8.849,0,0,0,8.938,8.735h80.458a8.849,8.849,0,0,0,8.938-8.735v-90a8.848,8.848,0,0,0-8.937-8.735Z" transform="translate(-670.244 -713.948)" fill="#1391e6"/><path d="M762.417,743.161a4.1,4.1,0,0,1,4.15,4.032v41.181a4.1,4.1,0,0,1-4.15,4.031h-70.51a4.1,4.1,0,0,1-4.15-4.031V747.192a4.1,4.1,0,0,1,4.15-4.032h70.509m0-3.7H691.908a7.85,7.85,0,0,0-7.961,7.734v41.181a7.85,7.85,0,0,0,7.961,7.734h70.51a7.85,7.85,0,0,0,7.961-7.734V747.192a7.851,7.851,0,0,0-7.962-7.734Z" transform="translate(-672.672 -717.872)" fill="#1391e6"/><path d="M695.657,818.817a8.007,8.007,0,1,1-8.007,8.008,8.017,8.017,0,0,1,8.007-8.008m0-3.7a11.71,11.71,0,1,0,11.711,11.71,11.71,11.71,0,0,0-11.711-11.71Z" transform="translate(-672.672 -731.276)" fill="#1391e6"/><path d="M769.237,818.817a8.007,8.007,0,1,1-8.008,8.008,8.016,8.016,0,0,1,8.008-8.008m0-3.7a11.71,11.71,0,1,0,11.71,11.71,11.711,11.711,0,0,0-11.71-11.71Z" transform="translate(-683.24 -731.276)" fill="#1391e6"/><path d="M742.03,734.118H722.6a2.6,2.6,0,1,1,0-5.2H742.03a2.6,2.6,0,1,1,0,5.2Z" transform="translate(-677.825 -716.004)" fill="#1391e6"/><path d="M672.845,878.812a2.6,2.6,0,0,1-1.969-4.3l16.713-19.364a2.6,2.6,0,0,1,3.94,3.4L674.816,877.91A2.6,2.6,0,0,1,672.845,878.812Z" transform="translate(-670.244 -738.209)" fill="#1391e6"/><path d="M792.372,878.812a2.6,2.6,0,0,1-1.97-.9l-16.713-19.364a2.6,2.6,0,0,1,3.939-3.4l16.713,19.364a2.6,2.6,0,0,1-1.969,4.3Z" transform="translate(-685.991 -738.209)" fill="#1391e6"/><path d="M769.679,872.49H683.074a2.6,2.6,0,1,1,0-5.2h86.605a2.6,2.6,0,1,1,0,5.2Z" transform="translate(-672.043 -740.52)" fill="#1391e6"/><path d="M745.457,713.224H717.752A1.772,1.772,0,0,0,715.98,715v4.216a1.771,1.771,0,0,0,1.772,1.771h27.705a1.77,1.77,0,0,0,1.771-1.771V715a1.771,1.771,0,0,0-1.771-1.772Z" transform="translate(-677.113 -713.224)" fill="#1391e6"/></g></svg>