<svg width="109.134" height="140.798"><path d="M6.288 118.993h96.558a13.847 13.847 0 0 0 6.289-11.544V17.327A14.138 14.138 0 0 0 94.856 3.369H70.575V1.776A1.794 1.794 0 0 0 68.756 0H40.374a1.8 1.8 0 0 0-1.818 1.776v1.6H14.282A14.138 14.138 0 0 0 .001 17.334v90.122a13.848 13.848 0 0 0 6.287 11.537Z" fill="#fff"/><path d="M94.856 121.406h-80.57A14.138 14.138 0 0 1 .005 107.448V17.327A14.138 14.138 0 0 1 14.286 3.369h80.57a14.138 14.138 0 0 1 14.282 13.958v90.121a14.138 14.138 0 0 1-14.282 13.958ZM14.286 8.58a8.861 8.861 0 0 0-8.95 8.747v90.121a8.861 8.861 0 0 0 8.95 8.747h80.57a8.861 8.861 0 0 0 8.95-8.747V17.327a8.861 8.861 0 0 0-8.95-8.747Z" fill="#1391e6"/><path d="M89.87 25.324a4.1 4.1 0 0 1 4.156 4.037v41.238a4.1 4.1 0 0 1-4.155 4.037H19.263a4.1 4.1 0 0 1-4.155-4.037V29.358a4.1 4.1 0 0 1 4.155-4.037H89.87m0-3.708H19.263a7.861 7.861 0 0 0-7.972 7.745v41.238a7.861 7.861 0 0 0 7.972 7.745h70.608a7.861 7.861 0 0 0 7.972-7.745V29.358a7.862 7.862 0 0 0-7.973-7.745ZM23.017 87.662a8.018 8.018 0 1 1-8.018 8.019 8.028 8.028 0 0 1 8.018-8.019m0-3.708a11.726 11.726 0 1 0 11.727 11.727 11.726 11.726 0 0 0-11.727-11.727ZM86.118 87.662a8.018 8.018 0 1 1-8.019 8.019 8.027 8.027 0 0 1 8.019-8.019m0-3.708a11.726 11.726 0 1 0 11.726 11.727 11.727 11.727 0 0 0-11.726-11.727ZM64.293 18.139H44.839a2.6055 2.6055 0 1 1 0-5.211h19.454a2.6055 2.6055 0 1 1 0 5.211ZM2.605 140.798a2.606 2.606 0 0 1-1.972-4.309l16.736-19.391a2.606 2.606 0 0 1 3.945 3.405L4.577 139.894a2.6 2.6 0 0 1-1.972.904ZM106.53 140.798a2.6 2.6 0 0 1-1.973-.9L87.82 120.504a2.606 2.606 0 0 1 3.944-3.405l16.737 19.391a2.606 2.606 0 0 1-1.972 4.309Z" fill="#1391e6"/><path d="M97.769 132.156H11.046a2.606 2.606 0 1 1 0-5.211h86.723a2.606 2.606 0 1 1 0 5.211ZM68.441 0H40.695a1.774 1.774 0 0 0-1.774 1.776v4.222a1.773 1.773 0 0 0 1.774 1.773h27.746a1.773 1.773 0 0 0 1.773-1.773V1.776A1.773 1.773 0 0 0 68.441.002Z" fill="#1391e6"/></svg>